<svg xmlns="http://www.w3.org/2000/svg" viewBox="0 0 63 88">
  <defs>
    <linearGradient id="cardGrad" x1="0%" y1="0%" x2="100%" y2="100%">
      <stop offset="0%" style="stop-color:#8B6914"/>
      <stop offset="50%" style="stop-color:#6B4E12"/>
      <stop offset="100%" style="stop-color:#4A3509"/>
    </linearGradient>
    <linearGradient id="borderGrad" x1="0%" y1="0%" x2="100%" y2="100%">
      <stop offset="0%" style="stop-color:#D4AF37"/>
      <stop offset="50%" style="stop-color:#AA8C2C"/>
      <stop offset="100%" style="stop-color:#8B6914"/>
    </linearGradient>
  </defs>
  <!-- Card base -->
  <rect x="1" y="1" width="61" height="86" rx="3" ry="3" fill="url(#cardGrad)" stroke="url(#borderGrad)" stroke-width="1.5"/>
  <!-- Border frame -->
  <rect x="4" y="4" width="55" height="80" rx="2" ry="2" fill="none" stroke="#D4AF37" stroke-width="0.5" opacity="0.6"/>
  <!-- Inner frame -->
  <rect x="7" y="7" width="49" height="74" rx="1" ry="1" fill="none" stroke="#D4AF37" stroke-width="0.3" opacity="0.4"/>
  <!-- Circle emblem -->
  <circle cx="31.5" cy="44" r="18" fill="none" stroke="#D4AF37" stroke-width="1" opacity="0.5"/>
  <circle cx="31.5" cy="44" r="14" fill="none" stroke="#D4AF37" stroke-width="0.5" opacity="0.3"/>
  <!-- M shape for magic -->
  <path d="M22 36 L22 52 L24 44 L26 48 L28 40 L31.5 46 L35 40 L37 48 L39 44 L41 52 L41 36 L38 36 L38 48 L36 44 L34 48 L32 42 L30 48 L28 44 L28 36 Z" fill="#D4AF37" opacity="0.6"/>
</svg>